<svg width="662" height="548" viewBox="0 0 662 548" fill="none" xmlns="http://www.w3.org/2000/svg">
<path d="M225 435.516C207.667 451.683 170.9 496.516 162.5 546.516H484.5L465.5 455.016C488.837 436.183 538.14 421.373 561.427 351.016C569.618 349.683 591.6 344.1 608 344.5C624.4 344.9 649 351.349 660 353.016V349C656.5 344 624.4 336.416 608 336.016C591.6 335.616 572.5 337.829 565 338.985C567.637 329.032 569.786 318.086 571.334 306.016C579.556 304.016 596.7 298.6 609.5 297C622.3 295.4 648 297.349 658 298.016V294C651.5 291.5 631.5 287.816 609.5 289.016C587.5 290.216 575.667 293.849 572.5 295.516C576.5 253.116 551.167 205.849 538 187.516C547.5 135.683 569.5 31.2161 543.5 20.0161C517.5 8.81611 455.833 60.3494 433 88.5161L408.5 99.5161C400.833 97.3494 379.6 92.1161 356 88.5161C332.4 84.9161 310.667 91.0161 302.5 92.5161C290.5 66.0161 274.3 3.61613 233.5 2.01613C182.5 0.0161283 115 184.516 110 281.516C109.362 293.887 110.834 305.745 113.921 317.016C100.447 319.516 83 320.689 53 330.516C24 340.016 13.3333 349.333 3.5 355.5L5.5 358.516C18.8333 352.516 34 345.263 57 338C86 328.842 99.7523 330.349 117.128 327.016C119.812 334.313 123.152 341.338 127 348.068C118.167 350.05 93.7 356.316 66.5 365.516C39.3 374.716 16.5 392.016 8.5 399.516L11 403.5C21.8333 396.167 50.8 383.7 70 376.5C89.2 369.3 120.516 361.849 133.524 358.516C159.18 396.374 199.818 423.555 225 435.516Z" fill="#00BBD5" stroke="#00BBD5" stroke-width="4"/>
<path d="M390.5 326C390 325 380 325 375.5 325.5C370.708 326.032 363 327.5 363 329.5C364 337 373.9 338.3 379.5 337.5C386.5 336.5 391.804 328.608 390.5 326Z" fill="black" stroke="black"/>
<path d="M354 284C354 295.809 352.231 304.5 348 309.5C333.126 327.076 298.943 334 268.5 334C247.129 334 226.38 331.827 211.5 323.5C193.885 313.642 184 296.164 184 277.752C184 243.786 216.332 215 263 215C309.668 215 354 250.034 354 284Z" fill="white"/>
<path d="M524 274C524 287.929 519.644 301.99 508.5 310.5C496.226 319.873 477.249 323 458 323C421.273 323 396 303.271 396 274C396 244.729 425.773 223.5 462.5 223.5C481.413 223.5 497.42 227.042 508.5 236.5C518.936 245.409 524 259.802 524 274Z" fill="white"/>
<path d="M321.5 280.5C321.5 283.999 321.514 287.335 321.517 290.5C321.518 291.518 321.516 293.5 321.516 293.5C321.514 294.27 320.5 291 316.5 291.5C314 291.5 311.5 292.5 311.5 298C311.5 302 314 303.5 316.5 303.5C321.325 303.5 321.5 298.5 321.5 298.5C321.113 315.424 319.047 328.398 309.5 329.5C290 329.5 285.5 304.047 285.5 274.5C285.5 244.953 288 223 301 223C310.941 223 321.5 250.953 321.5 280.5Z" fill="black"/>
<path d="M498.79 277C498.79 279.517 498.756 282.027 498.674 284.5C498.674 284.5 495.899 282.127 493.29 283C491.001 283.766 489.29 286.5 489.29 288.5C489.29 292 490.309 295.19 492.79 295.5C496.79 296 498.08 294 498.08 294C500 314 492.767 320.042 483.29 321.5C470.79 322.5 461.79 300.062 461.79 273C461.79 245.938 463.02 224 473.79 224C484.56 224 498.79 238 498.79 277Z" fill="black"/>
<path d="M337 381.5C339.333 385.833 346.2 394.4 355 394C363.8 393.6 380 388.5 380 378.5C381 382 385.2 389 394 389C402.8 389 406.667 382.333 407.5 379" stroke="black" stroke-width="4"/>
<path d="M223.5 31.5C205.1 32.7 172.167 117 158 159C158 159 204.5 124.25 218 117.5C231.5 110.75 265 99.5 265 99.5C258.833 76.3333 241.9 30.3 223.5 31.5Z" fill="#FED4AC" stroke="#FED4AC" stroke-width="4"/>
<path d="M445 112C455.8 112.8 500 146 513.5 163.5C520.5 153.5 535 45.5 526 44.5C517 43.5 461.833 89.1667 445 112Z" fill="#FED4AC" stroke="#FED4AC" stroke-width="4"/>
</svg>
